<svg width="20" height="20" viewBox="0 0 20 20" fill="none" xmlns="http://www.w3.org/2000/svg">
<g clip-path="url(#clip0_52390_36608)">
<path d="M9.79883 9.05664C10.9047 10.7557 12.8198 11.8799 14.998 11.8799C15.5825 11.8799 16.1475 11.7967 16.6836 11.6455V17.4971L16.6816 17.5L9.99902 10.7373L3.31738 17.5L3.31445 17.4971V11.627C5.16305 9.95857 7.47454 9.10326 9.79883 9.05664ZM9.6748 2.5C9.11821 3.42979 8.79785 4.51726 8.79785 5.67969C8.79787 6.2078 8.864 6.72048 8.98828 7.20996H3.31445V2.5H9.6748Z" fill="#141031"/>
<path d="M18.8242 5.67944C18.8242 3.5676 17.1118 1.85524 15 1.85524C12.8882 1.85524 11.1758 3.5676 11.1758 5.67944C11.1758 7.79128 12.8882 9.50365 15 9.50365C17.1118 9.50365 18.8242 7.79128 18.8242 5.67944ZM20 5.67944C20 8.44108 17.7616 10.6794 15 10.6794C12.2384 10.6794 10 8.44108 10 5.67944C10 2.91781 12.2384 0.679443 15 0.679443C17.7616 0.679443 20 2.91781 20 5.67944Z" fill="#141B34"/>
<path d="M14.4121 2.82349L15.5879 2.82349L15.5879 5.85968L14.4121 5.85968L14.4121 2.82349Z" fill="#141B34"/>
<path d="M14.9988 6.63586C15.3846 6.63586 15.6977 6.94813 15.6978 7.33387C15.6978 7.7197 15.3846 8.03284 14.9988 8.03284C14.613 8.03274 14.3008 7.71964 14.3008 7.33387C14.3009 6.9482 14.6131 6.63597 14.9988 6.63586Z" fill="#141B34"/>
</g>
<defs>
<clipPath id="clip0_52390_36608">
<rect width="20" height="20" fill="white"/>
</clipPath>
</defs>
</svg>
