<svg width="20" height="20" viewBox="0 0 20 20" fill="none" xmlns="http://www.w3.org/2000/svg">
<rect width="20" height="20" rx="2" fill="url(#paint0_linear_42396_56923)"/>
<path d="M7.71497 9.42415C7.76352 9.30276 7.90159 9.24379 8.02298 9.29234L8.81184 9.60775C8.93323 9.65629 8.99221 9.79437 8.94366 9.91576C8.89506 10.037 8.75761 10.096 8.63632 10.0476L7.84678 9.73216C7.72553 9.68357 7.66648 9.54547 7.71497 9.42415Z" fill="url(#paint1_linear_42396_56923)"/>
<path d="M11.8409 7.97353L9.82869 8.86731L9.16693 8.57342L11.1791 7.67897L11.8409 7.97353Z" fill="url(#paint2_linear_42396_56923)"/>
<path d="M10.4017 7.33397L8.3895 8.22774L7.81652 7.97353L9.82869 7.07908L10.4017 7.33397Z" fill="url(#paint3_linear_42396_56923)"/>
<path fill-rule="evenodd" clip-rule="evenodd" d="M10.0143 2.59743C11.326 2.57296 12.303 3.15226 13.1577 3.65866L13.1893 3.67682C14.0741 4.20101 14.8418 4.64656 15.876 4.64659C16.1226 4.64659 16.3351 4.82104 16.383 5.06288C17.0397 8.38634 16.6959 11.1523 15.5626 13.2582C14.4255 15.3708 12.5217 16.7655 10.171 17.3861C10.089 17.4077 10.0026 17.4083 9.92015 17.3888C7.72212 16.8692 5.7917 15.5117 4.58776 13.3994C3.38479 11.2884 2.92873 8.46381 3.59311 5.03598C3.64288 4.77938 3.87647 4.60026 4.13718 4.61902C5.03651 4.68369 5.79075 4.27142 6.72637 3.73466L6.78219 3.70237C7.66623 3.19485 8.70416 2.59906 10.0143 2.59743ZM9.95378 6.46104C9.87421 6.42568 9.78317 6.42568 9.7036 6.46104L6.93418 7.69242C6.91332 7.70169 6.89353 7.71282 6.87567 7.72605C6.80228 7.76624 6.75262 7.84429 6.7526 7.93385V7.94596C6.75179 7.95502 6.75125 7.96431 6.75125 7.97353C6.75126 7.98275 6.75178 7.99204 6.7526 8.00111V11.7215C6.7526 11.815 6.80768 11.9 6.89315 11.938L9.73252 13.2003C9.79372 13.2275 9.86366 13.2275 9.92486 13.2003L12.7669 11.938C12.8524 11.9 12.9075 11.815 12.9075 11.7215V7.93789C12.9074 7.85315 12.8629 7.77854 12.7958 7.73681C12.7743 7.71883 12.7497 7.70417 12.7232 7.69242L9.95378 6.46104Z" fill="url(#paint4_linear_42396_56923)"/>
<defs>
<linearGradient id="paint0_linear_42396_56923" x1="10" y1="0" x2="10" y2="20" gradientUnits="userSpaceOnUse">
<stop stop-color="#A397F8"/>
<stop offset="1" stop-color="#6551F3"/>
</linearGradient>
<linearGradient id="paint1_linear_42396_56923" x1="10.0006" y1="2.59668" x2="5.12448" y2="20.0919" gradientUnits="userSpaceOnUse">
<stop stop-color="white"/>
<stop offset="1" stop-color="white" stop-opacity="0.3"/>
</linearGradient>
<linearGradient id="paint2_linear_42396_56923" x1="10.0006" y1="2.59668" x2="5.12448" y2="20.0919" gradientUnits="userSpaceOnUse">
<stop stop-color="white"/>
<stop offset="1" stop-color="white" stop-opacity="0.3"/>
</linearGradient>
<linearGradient id="paint3_linear_42396_56923" x1="10.0006" y1="2.59668" x2="5.12448" y2="20.0919" gradientUnits="userSpaceOnUse">
<stop stop-color="white"/>
<stop offset="1" stop-color="white" stop-opacity="0.3"/>
</linearGradient>
<linearGradient id="paint4_linear_42396_56923" x1="10.0006" y1="2.59668" x2="5.12448" y2="20.0919" gradientUnits="userSpaceOnUse">
<stop stop-color="white"/>
<stop offset="1" stop-color="white" stop-opacity="0.3"/>
</linearGradient>
</defs>
</svg>
