<svg width="20" height="20" viewBox="0 0 20 20" fill="none" xmlns="http://www.w3.org/2000/svg">
<path d="M7.04262 9.22246C7.1082 9.05848 7.2947 8.97883 7.45868 9.04441L8.52426 9.47046C8.68823 9.53603 8.7679 9.72254 8.70231 9.88652C8.63667 10.0503 8.451 10.13 8.28716 10.0646L7.22067 9.63852C7.05688 9.57288 6.97712 9.38634 7.04262 9.22246Z" fill="url(#paint0_linear_42926_93510)"/>
<path d="M12.6158 7.26298L9.8978 8.47028L9.00391 8.0733L11.7219 6.86509L12.6158 7.26298Z" fill="url(#paint1_linear_42926_93510)"/>
<path d="M10.6718 6.39907L7.95377 7.60637L7.17979 7.26298L9.8978 6.05477L10.6718 6.39907Z" fill="url(#paint2_linear_42926_93510)"/>
<path fill-rule="evenodd" clip-rule="evenodd" d="M10.1485 0.0010121C11.9203 -0.0320357 13.2401 0.750473 14.3945 1.43451L14.4372 1.45904C15.6325 2.1671 16.6694 2.76895 18.0664 2.76899C18.3995 2.76899 18.6865 3.00463 18.7513 3.33131C19.6383 7.8206 19.174 11.5569 17.6431 14.4014C16.1071 17.2551 13.5355 19.1391 10.3602 19.9773C10.2494 20.0065 10.1328 20.0073 10.0213 19.981C7.05227 19.2791 4.4447 17.4454 2.81843 14.5922C1.19347 11.7407 0.577432 7.92524 1.47487 3.29497C1.5421 2.94837 1.85763 2.70641 2.20978 2.73174C3.42459 2.8191 4.44341 2.26222 5.70723 1.53716L5.78263 1.49356C6.97679 0.808002 8.3788 0.00321282 10.1485 0.0010121ZM10.0668 5.21993C9.95929 5.17217 9.83631 5.17216 9.72884 5.21993L5.98793 6.88326C5.95976 6.89578 5.93302 6.91081 5.9089 6.92868C5.80977 6.98297 5.7427 7.0884 5.74266 7.20938V7.22573C5.74156 7.23798 5.74084 7.25053 5.74084 7.26298C5.74085 7.27543 5.74156 7.28798 5.74266 7.30022V12.3256C5.74266 12.452 5.81707 12.5668 5.93252 12.6182L9.7679 14.3233C9.85057 14.36 9.94504 14.36 10.0277 14.3233L13.8667 12.6182C13.9822 12.5669 14.0566 12.452 14.0566 12.3256V7.21483C14.0564 7.10037 13.9963 6.99959 13.9058 6.94321C13.8767 6.91894 13.8434 6.89913 13.8077 6.88326L10.0668 5.21993Z" fill="url(#paint3_linear_42926_93510)"/>
<defs>
<linearGradient id="paint0_linear_42926_93510" x1="10.1301" y1="0" x2="10.1301" y2="20" gradientUnits="userSpaceOnUse">
<stop stop-color="#A397F8"/>
<stop offset="1" stop-color="#6551F3"/>
</linearGradient>
<linearGradient id="paint1_linear_42926_93510" x1="10.1301" y1="0" x2="10.1301" y2="20" gradientUnits="userSpaceOnUse">
<stop stop-color="#A397F8"/>
<stop offset="1" stop-color="#6551F3"/>
</linearGradient>
<linearGradient id="paint2_linear_42926_93510" x1="10.1301" y1="0" x2="10.1301" y2="20" gradientUnits="userSpaceOnUse">
<stop stop-color="#A397F8"/>
<stop offset="1" stop-color="#6551F3"/>
</linearGradient>
<linearGradient id="paint3_linear_42926_93510" x1="10.1301" y1="0" x2="10.1301" y2="20" gradientUnits="userSpaceOnUse">
<stop stop-color="#A397F8"/>
<stop offset="1" stop-color="#6551F3"/>
</linearGradient>
</defs>
</svg>
