<svg width="20" height="20" viewBox="0 0 20 20" fill="none" xmlns="http://www.w3.org/2000/svg">
<path d="M10.0173 17.4111C14.0946 17.4111 17.3998 14.1058 17.3998 10.0286C17.3998 5.95136 14.0946 2.6461 10.0173 2.6461C5.94007 2.6461 2.63481 5.95136 2.63481 10.0286C2.63481 14.1058 5.94007 17.4111 10.0173 17.4111Z" fill="white"/>
<path d="M14.7152 11.3709C14.7152 8.77621 12.6119 6.67277 10.0173 6.67277C7.42274 6.67277 5.3193 8.77621 5.3193 11.3709H6.66148C6.66148 9.5175 8.16403 8.0152 10.0172 8.0152C11.8705 8.0152 13.3729 9.5175 13.3729 11.3709" fill="black" fill-opacity="0.1"/>
<path d="M10.3529 13.5184C11.7614 13.5184 12.9032 12.3766 12.9032 10.9681C12.9032 9.55965 11.7614 8.41785 10.3529 8.41785C8.94444 8.41785 7.80264 9.55965 7.80264 10.9681C7.80264 12.3766 8.94444 13.5184 10.3529 13.5184Z" fill="black" fill-opacity="0.1"/>
<path d="M10.0173 12.7801C11.537 12.7801 12.769 11.5482 12.769 10.0285C12.769 8.50878 11.537 7.27682 10.0173 7.27682C8.49761 7.27682 7.26565 8.50878 7.26565 10.0285C7.26565 11.5482 8.49761 12.7801 10.0173 12.7801Z" fill="#4285F4"/>
<path d="M16.7286 6.67277C14.881 2.95532 10.3696 1.43958 6.65205 3.28717C5.4929 3.86329 4.50218 4.72898 3.77585 5.80041L6.79607 11.0352C6.23971 9.26746 7.2222 7.38332 8.98992 6.82708C9.30082 6.72923 9.62435 6.67729 9.95026 6.67289" fill="#EA4335"/>
<path d="M3.77585 5.80041C1.46424 9.2487 2.38574 13.9178 5.83391 16.2294C6.90079 16.9445 8.13307 17.3745 9.41327 17.4783L12.5676 12.1092C11.3882 13.5386 9.27324 13.7413 7.84367 12.5618C7.35814 12.1613 6.99519 11.6322 6.79607 11.0352" fill="#34A853"/>
<path d="M9.41327 17.4783C13.5529 17.7911 17.1622 14.6891 17.4752 10.5496C17.5762 9.21396 17.3185 7.87534 16.7286 6.67277L9.95026 6.67289C11.8034 6.68137 13.2991 8.19081 13.2904 10.0441C13.2869 10.7939 13.0325 11.5209 12.5676 12.1092" fill="#FBBC05"/>
<path d="M3.77585 5.80041L6.79607 11.0352C6.5723 10.2823 6.61971 9.47483 6.93004 8.75334L3.90995 5.59902" fill="url(#paint0_linear_5651_27320)"/>
<path d="M9.41327 17.4783L12.5676 12.1092C12.0699 12.7026 11.3822 13.1058 10.6212 13.2501L9.27893 17.4784" fill="url(#paint1_linear_5651_27320)"/>
<path d="M16.7286 6.67277L9.95026 6.67289C10.4543 6.67525 10.9513 6.79099 11.4044 7.01176C11.8575 7.23254 12.2551 7.55255 12.5676 7.94803L16.8629 6.87416" fill="url(#paint2_linear_5651_27320)"/>
<defs>
<linearGradient id="paint0_linear_5651_27320" x1="9.99928" y1="16.9446" x2="9.99928" y2="2.12998" gradientUnits="userSpaceOnUse">
<stop stop-opacity="0.15"/>
<stop offset="0.3" stop-opacity="0.06"/>
<stop offset="1" stop-opacity="0.03"/>
</linearGradient>
<linearGradient id="paint1_linear_5651_27320" x1="18.3911" y1="3.7808" x2="9.27786" y2="18.9246" gradientUnits="userSpaceOnUse">
<stop stop-opacity="0.15"/>
<stop offset="0.3" stop-opacity="0.06"/>
<stop offset="1" stop-opacity="0.03"/>
</linearGradient>
<linearGradient id="paint2_linear_5651_27320" x1="12.7103" y1="13.6495" x2="13.2473" y2="8.34728" gradientUnits="userSpaceOnUse">
<stop stop-opacity="0.15"/>
<stop offset="0.3" stop-opacity="0.06"/>
<stop offset="1" stop-opacity="0.03"/>
</linearGradient>
</defs>
</svg>
