<svg width="20" height="14" viewBox="0 0 20 14" fill="none" xmlns="http://www.w3.org/2000/svg">
<path fill-rule="evenodd" clip-rule="evenodd" d="M11.3236 5.52762C11.088 5.59356 10.8491 5.66037 10.5726 5.7355C10.4376 5.77375 10.4068 5.78244 10.2811 5.62962C10.1304 5.44962 10.0198 5.33319 9.80867 5.22725C9.17542 4.899 8.56223 4.99431 7.98929 5.38612C7.30579 5.852 6.95398 6.54025 6.96404 7.3979C6.97404 8.2451 7.52692 8.9439 8.32104 9.0604C9.00454 9.1557 9.57748 8.9016 10.0298 8.3616C10.1203 8.2451 10.2008 8.1179 10.3013 7.9698H8.36123C8.1501 7.9698 8.09985 7.8321 8.17023 7.6521C8.30092 7.3238 8.54217 6.77325 8.68285 6.49794C8.71304 6.43437 8.78342 6.3285 8.93417 6.3285H12.1689C12.3142 5.8435 12.55 5.38525 12.8645 4.95162C13.5983 3.93506 14.4828 3.40562 15.679 3.18331C16.7043 2.99268 17.6692 3.09856 18.5437 3.72331C19.3378 4.29512 19.8303 5.06806 19.961 6.08462C20.1319 7.5141 19.7399 8.6789 18.8051 9.6742C18.1416 10.3836 17.3275 10.8284 16.3926 11.0296C16.2143 11.0643 16.036 11.0808 15.8605 11.0971C15.769 11.1056 15.6781 11.1139 15.5885 11.1249C14.6738 11.1037 13.8395 10.8284 13.1358 10.1931C12.641 9.7424 12.3002 9.1887 12.1308 8.5441C12.0132 8.7942 11.8726 9.0337 11.7085 9.2616C10.9848 10.2675 10.0399 10.8923 8.84373 11.0617C7.8586 11.1993 6.94392 10.9981 6.13976 10.3628C5.39593 9.7698 4.97376 8.9863 4.86319 8.0121C4.73251 6.85794 5.05417 5.82025 5.71759 4.90962C6.43129 3.92487 7.37617 3.30012 8.5321 3.07775C9.47698 2.89775 10.3816 3.01425 11.1959 3.59662C11.7286 3.96718 12.1106 4.4755 12.3619 5.08962C12.4222 5.18494 12.382 5.23787 12.2613 5.26962C11.9091 5.36387 11.619 5.44506 11.3236 5.52762ZM17.9738 6.73375C17.9758 6.76931 17.9779 6.80681 17.9808 6.847C17.9306 7.7576 17.4983 8.4353 16.7043 8.8694C16.1715 9.1553 15.6186 9.1871 15.0658 8.933C14.3421 8.5941 13.9601 7.7576 14.141 6.93169C14.3622 5.93637 14.9653 5.31162 15.9001 5.08925C16.855 4.85631 17.7698 5.44925 17.9507 6.49756C17.9649 6.57256 17.9691 6.6475 17.9738 6.73375Z" fill="#00ACD7"/>
<path d="M1.52787 5.40732C1.50777 5.43907 1.51782 5.46026 1.55802 5.46026L4.55162 5.47088C4.58178 5.47088 4.63203 5.43907 4.65214 5.40732L4.82302 5.13201C4.84312 5.10026 4.83307 5.06851 4.79286 5.06851H1.84953C1.80932 5.06851 1.75906 5.0897 1.73896 5.12145L1.52787 5.40732Z" fill="#00ACD7"/>
<path d="M0.0100518 6.38145C-0.0100518 6.4132 3.72529e-09 6.43438 0.0402073 6.43438L4.14955 6.42382C4.18976 6.42382 4.22997 6.40263 4.24002 6.36026L4.32044 6.10613C4.33049 6.07438 4.31038 6.04263 4.27017 6.04263H0.33171C0.291503 6.04263 0.241243 6.06376 0.22114 6.09557L0.0100518 6.38145Z" fill="#00ACD7"/>
<path d="M2.44261 7.34511C2.42251 7.37681 2.43256 7.4086 2.47277 7.4086L4.0189 7.4192C4.04905 7.4192 4.08927 7.38741 4.08927 7.34511L4.10937 7.09091C4.10937 7.04857 4.08927 7.01682 4.04905 7.01682H2.68386C2.64365 7.01682 2.60344 7.04857 2.58334 7.08031L2.44261 7.34511Z" fill="#00ACD7"/>
</svg>
