<svg width="109" height="26" viewBox="0 0 109 26" fill="none" xmlns="http://www.w3.org/2000/svg">
<path d="M22.0148 0.650146H0V8.40562H22.0148V0.650146Z" fill="#6551F3"/>
<path d="M0 15.6798C6.26295 10.0272 15.7518 10.0272 22.0148 15.6798V25.3453L22.0105 25.3497L11.0074 14.2148L0.00431605 25.3497L0 25.3453V15.6798Z" fill="#6551F3"/>
<path d="M47.8556 17.876H47.3837C46.938 17.876 46.5971 17.7972 46.3612 17.6134C46.1252 17.4295 45.9941 17.0618 45.9941 16.484V11.7829C45.9941 10.1545 45.496 8.84133 44.5259 7.81704C43.5558 6.79276 41.9565 6.29375 39.7542 6.29375C37.7616 6.29375 36.2147 6.74023 35.1398 7.60694C34.0648 8.4999 33.4094 9.70803 33.2258 11.2576H36.7129C36.9488 9.70803 37.9451 8.94638 39.6493 8.94638C40.6718 8.94638 41.4059 9.20902 41.7992 9.73429C42.1925 10.2596 42.4022 10.9949 42.4022 11.9404V12.3344H39.5706C37.3421 12.3344 35.6379 12.7283 34.4843 13.5425C33.3307 14.3567 32.7539 15.4598 32.7539 16.8517C32.7539 18.27 33.2783 19.3205 34.327 20.0034C35.3757 20.7125 36.608 21.0539 38.05 21.0539C40.2785 21.0539 41.9303 20.266 42.9528 18.6639C43.1888 19.4256 43.582 19.9771 44.1326 20.266C44.6832 20.5812 45.496 20.7388 46.6234 20.7388H47.8556V17.876ZM38.8628 18.4013C38.0762 18.4013 37.4732 18.2174 37.0537 17.876C36.608 17.5346 36.3982 17.0881 36.3982 16.5366C36.3982 15.2497 37.6043 14.5931 40.0426 14.5931H42.4547C42.4547 15.9062 42.1138 16.878 41.4059 17.4821C40.698 18.0861 39.859 18.4013 38.8628 18.4013Z" fill="#141031"/>
<path d="M50.1079 1.72388V5.11189H53.6998V1.72388H50.1079ZM50.1079 6.60892V20.7388H53.6998V6.60892H50.1079Z" fill="#141031"/>
<path d="M56.7594 1.72388V20.7388H60.3513V16.6679L62.1865 14.7769L66.2504 20.7388H70.4977L64.6248 12.1768L69.9733 6.60892H65.5425L60.3513 12.0718V1.72388H56.7594Z" fill="#141031"/>
<path d="M72.2039 1.72388V5.11189H75.7958V1.72388H72.2039ZM72.2039 6.60892V20.7388H75.7958V6.60892H72.2039Z" fill="#141031"/>
<path d="M92.5901 1.72388H88.9982V8.68374C88.0281 7.08166 86.5336 6.29375 84.5673 6.29375C82.7058 6.29375 81.1851 6.95034 80.0577 8.28979C78.9304 9.62924 78.3536 11.4414 78.3536 13.6738C78.3536 15.9062 78.9304 17.6922 80.0577 19.0316C81.1851 20.3711 82.7058 21.0539 84.5673 21.0539C86.5336 21.0539 88.0281 20.266 88.9982 18.6639V20.7388H92.5901V1.72388ZM85.5373 18.1912C84.3575 18.1912 83.4923 17.771 82.8893 16.9043C82.2863 16.0638 81.9979 14.987 81.9979 13.6738C81.9979 12.3607 82.2863 11.2838 82.8893 10.4171C83.4923 9.55044 84.3575 9.13023 85.5373 9.13023C86.691 9.13023 87.5824 9.55045 88.2378 10.3646C88.8671 11.2051 89.1817 12.3081 89.1817 13.6738C89.1817 15.0395 88.8671 16.1426 88.2378 16.9568C87.5824 17.771 86.691 18.1912 85.5373 18.1912Z" fill="#141031"/>
<path d="M101.895 21.0539C104.097 21.0539 105.828 20.3973 107.112 19.0579C108.371 17.7184 109 15.9325 109 13.6738C109 11.4152 108.371 9.62924 107.112 8.28979C105.828 6.95034 104.097 6.29375 101.895 6.29375C99.6665 6.29375 97.9361 6.95034 96.6776 8.28979C95.4192 9.62924 94.7899 11.4152 94.7899 13.6738C94.7899 15.9325 95.4192 17.7184 96.6776 19.0579C97.9361 20.3973 99.6665 21.0539 101.895 21.0539ZM101.895 18.1912C100.768 18.1912 99.9287 17.7972 99.3257 17.0093C98.7227 16.2477 98.4343 15.1183 98.4343 13.6738C98.4343 12.2293 98.7227 11.1 99.3257 10.3121C99.9287 9.52418 100.768 9.13023 101.895 9.13023C103.022 9.13023 103.861 9.52418 104.464 10.3121C105.067 11.1 105.356 12.2293 105.356 13.6738C105.356 15.1183 105.067 16.2477 104.464 17.0093C103.861 17.7972 103.022 18.1912 101.895 18.1912Z" fill="#141031"/>
</svg>
