<svg width="16" height="16" viewBox="0 0 16 16" fill="none" xmlns="http://www.w3.org/2000/svg">
<path d="M2.98174 1.26654C2.85282 1.6974 2.78549 2.14432 2.78174 2.59404L3.49524 2.93954C3.48181 2.51539 3.49852 2.09082 3.54524 1.66904C3.54774 1.64004 3.55074 1.62304 3.55074 1.62304C3.55074 1.63854 3.54624 1.65354 3.54524 1.66904C3.51183 2.08619 3.51133 2.50531 3.54374 2.92254C3.9133 2.60789 4.26611 2.2741 4.60074 1.92254C4.53041 1.73537 4.42387 1.5639 4.28719 1.41796C4.15052 1.27202 3.9864 1.15447 3.80424 1.07204C3.80424 1.07204 3.17224 0.817043 2.98174 1.26654Z" fill="url(#paint0_linear_36593_44149)"/>
<path d="M5.45573 6.74752C5.42223 6.78402 5.38773 6.81852 5.35273 6.85302C5.37073 6.83652 5.38923 6.81702 5.40623 6.79902C5.42373 6.78285 5.44026 6.76565 5.45573 6.74752Z" fill="#BE202E"/>
<path d="M5.45573 6.74752C5.42223 6.78402 5.38773 6.81852 5.35273 6.85302C5.37073 6.83652 5.38923 6.81702 5.40623 6.79902C5.42373 6.78285 5.44026 6.76565 5.45573 6.74752Z" fill="#BE202E"/>
<path d="M5.19373 6.17803C5.19973 6.17353 5.20424 6.16753 5.20973 6.16303C5.23223 6.14053 5.25473 6.11803 5.27374 6.09503C5.24874 6.12253 5.22073 6.14903 5.19373 6.17803Z" fill="#BE202E"/>
<path d="M5.19373 6.17803C5.19973 6.17353 5.20424 6.16753 5.20973 6.16303C5.23223 6.14053 5.25473 6.11803 5.27374 6.09503C5.24874 6.12253 5.22073 6.14903 5.19373 6.17803Z" fill="#BE202E"/>
<path d="M3.68374 5.04603C3.65041 4.8087 3.62041 4.57536 3.59374 4.34603C3.56624 4.10753 3.54374 3.87353 3.52824 3.64203C3.52824 3.62803 3.52574 3.61403 3.52824 3.60153C3.50974 3.37554 3.49874 3.15504 3.49374 2.93904L2.78124 2.59554C2.78124 2.63854 2.77624 2.68304 2.77474 2.73004C2.76774 2.90054 2.76224 3.08004 2.76074 3.27254C2.76074 3.48753 2.76074 3.71153 2.76474 3.94603C2.76974 4.16203 2.77874 4.38703 2.79024 4.61603C2.80174 4.81203 2.81474 5.01003 2.83074 5.21203C2.83074 5.22053 2.83074 5.22603 2.83074 5.23503L3.78374 5.71753C3.75224 5.49203 3.71724 5.26803 3.68374 5.04603Z" fill="url(#paint1_linear_36593_44149)"/>
<path d="M5.09374 10.681C5.14373 10.859 5.19973 11.0425 5.25773 11.2285C5.25773 11.2285 5.25773 11.234 5.25773 11.236C5.26573 11.263 5.27223 11.2885 5.28223 11.3145C5.32023 11.44 5.35673 11.5515 5.43573 11.8065C5.62704 11.7948 5.81749 11.8404 5.98273 11.9375C5.8531 11.7785 5.66615 11.6769 5.46223 11.6545C5.73671 11.5145 5.96723 11.3014 6.12841 11.0388C6.28958 10.7762 6.37516 10.4742 6.37573 10.166C6.36973 10.113 6.36273 10.058 6.35223 10.003C6.34645 10.1247 6.30777 10.2425 6.24033 10.3439C6.17288 10.4454 6.07919 10.5266 5.96923 10.579C6.20031 10.2286 6.30766 9.81096 6.27423 9.39252C6.26673 9.29602 6.25423 9.19252 6.23673 9.08302C6.20898 9.34757 6.11264 9.6003 5.95725 9.8162C5.80186 10.0321 5.59279 10.2037 5.35073 10.314L5.06174 10.58C5.07224 10.6135 5.08124 10.6465 5.09374 10.681Z" fill="url(#paint2_linear_36593_44149)"/>
<path d="M4.72024 9.86751C4.65974 9.64152 4.59924 9.41202 4.53774 9.18052C4.47974 8.95852 4.42424 8.73452 4.36874 8.50752C4.31324 8.28052 4.25974 8.05202 4.20674 7.82352C4.15374 7.59502 4.10174 7.35652 4.05274 7.12352C4.00374 6.89052 3.95774 6.65802 3.91174 6.42703C3.89524 6.34303 3.88024 6.26103 3.86524 6.17703C3.83874 6.03403 3.81524 5.89003 3.78924 5.74553C3.78924 5.73803 3.78674 5.72953 3.78424 5.72203L2.83674 5.23853C2.83893 5.2536 2.8401 5.2688 2.84024 5.28403C2.85924 5.49853 2.87774 5.71653 2.90324 5.93403C2.92874 6.15153 2.95624 6.37903 2.98924 6.60453C3.01724 6.79452 3.04724 6.98302 3.07874 7.17352C3.08524 7.21102 3.09274 7.25052 3.09924 7.28752C3.14274 7.52302 3.18974 7.75052 3.24024 7.96302C3.29674 8.20402 3.35774 8.43002 3.41874 8.64102C3.45974 8.77902 3.50024 8.91202 3.54174 9.03802C3.57774 9.14402 3.61674 9.25052 3.65424 9.35552C3.74474 9.60202 3.84524 9.84101 3.95424 10.0745L4.91174 10.5595C4.86174 10.3835 4.81174 10.2045 4.76174 10.023C4.74774 9.97051 4.73474 9.92002 4.72024 9.86751Z" fill="url(#paint3_linear_36593_44149)"/>
<path d="M3.96724 10.104C4.09703 10.3841 4.24415 10.6558 4.40774 10.9175C4.41324 10.9255 4.41874 10.9365 4.42424 10.9445C4.18673 10.8793 3.93895 10.8601 3.69424 10.888C4.13879 11.0116 4.54399 11.2477 4.87074 11.5735C4.71227 11.7125 4.52085 11.8085 4.31474 11.8525C4.51937 11.8862 4.72921 11.8676 4.92474 11.7985C4.73682 12.0009 4.60844 12.2513 4.55374 12.522C4.68854 12.2555 4.89785 12.0338 5.15623 11.884C5.44373 12.837 5.78973 13.87 6.17323 14.954C6.20259 14.9162 6.22207 14.8717 6.22992 14.8244C6.23778 14.7772 6.23376 14.7288 6.21823 14.6835C6.14773 14.489 5.69123 13.1995 5.17073 11.4495C5.15573 11.3995 5.14273 11.3495 5.12624 11.2995C5.12173 11.285 5.11823 11.2725 5.11373 11.2575C5.0604 11.0742 5.00607 10.8855 4.95074 10.6915C4.93874 10.6465 4.92574 10.6045 4.91374 10.559L3.95624 10.074C3.959 10.0843 3.96268 10.0944 3.96724 10.104Z" fill="url(#paint4_linear_36593_44149)"/>
<path d="M3.89674 5.73803C3.90224 5.77003 3.90824 5.79853 3.91374 5.83103C3.93224 5.92603 3.94874 6.02203 3.96824 6.11853C3.98824 6.22403 4.01024 6.33153 4.03124 6.44203C4.04174 6.49753 4.05224 6.55303 4.06424 6.61003C4.09874 6.78003 4.13624 6.95402 4.17474 7.13352C4.22474 7.35402 4.27474 7.58052 4.33024 7.81652C4.38024 8.03952 4.43924 8.27202 4.49824 8.50852C4.55574 8.73402 4.61374 8.96502 4.67774 9.20402C4.73374 9.41552 4.79424 9.63302 4.85524 9.85401C4.85524 9.86451 4.86224 9.87602 4.86424 9.88652C4.92574 10.106 4.99024 10.3325 5.05724 10.563C5.05764 10.5681 5.05918 10.5731 5.06174 10.5775L5.35073 10.3115C5.34323 10.3115 5.33773 10.318 5.32823 10.322C5.72091 9.89004 5.96728 9.34517 6.03223 8.76502C6.06302 8.47615 6.06 8.18468 6.02323 7.89652C5.99266 7.64616 5.94623 7.398 5.88423 7.15352C5.82723 6.92452 5.75723 6.68152 5.67173 6.42553C5.61286 6.5411 5.53869 6.64823 5.45123 6.74402L5.40123 6.79902C5.38473 6.81752 5.36623 6.83352 5.34773 6.85302C5.57763 6.47821 5.65226 6.0285 5.55573 5.59953C5.49118 5.78065 5.39428 5.94854 5.26973 6.09503C5.25073 6.11803 5.22823 6.14053 5.20573 6.16303C5.19973 6.16753 5.19523 6.17353 5.18773 6.17953C5.26663 6.0523 5.32896 5.91553 5.37323 5.77253C5.38204 5.74464 5.38922 5.71625 5.39473 5.68753C5.40473 5.64403 5.41173 5.60003 5.41823 5.55603C5.42073 5.52703 5.42523 5.50003 5.42773 5.47053C5.43352 5.40182 5.43352 5.33274 5.42773 5.26403C5.42773 5.24103 5.42773 5.22053 5.42223 5.19903C5.41673 5.16703 5.41273 5.13703 5.40673 5.10803C5.38373 4.97453 5.35673 4.85803 5.33223 4.75803C5.31923 4.70803 5.30723 4.66203 5.29423 4.62053C5.28823 4.60403 5.28523 4.58803 5.27923 4.57053C5.26373 4.52503 5.25123 4.48303 5.23723 4.44803C5.22192 4.40679 5.20439 4.36639 5.18473 4.32703C5.17997 4.34694 5.17292 4.36624 5.16373 4.38453C5.07979 4.55583 4.9702 4.71331 4.83874 4.85153L5.10523 4.60803L4.83724 4.85003C4.83604 4.8507 4.83501 4.85163 4.83423 4.85276C4.83345 4.85389 4.83294 4.85518 4.83274 4.85653C4.81896 4.87032 4.80594 4.88484 4.79374 4.90003C4.79374 4.89653 4.79824 4.89353 4.79874 4.89053L3.88874 5.72303C3.89624 5.72953 3.89724 5.73453 3.89674 5.73803Z" fill="url(#paint5_linear_36593_44149)"/>
<path d="M3.54374 2.92254C3.55474 3.12254 3.57224 3.34654 3.59374 3.59453C3.59418 3.60763 3.59569 3.62068 3.59824 3.63353C3.61874 3.85003 3.64524 4.08353 3.67924 4.33803C3.70824 4.55753 3.74024 4.78803 3.77924 5.03803C3.81174 5.25453 3.85174 5.48103 3.89274 5.72153L4.80274 4.88803C4.95749 4.64165 5.03691 4.35543 5.03124 4.06453C5.03124 3.99303 5.02574 3.91803 5.02024 3.84103C5.00593 3.60119 4.97956 3.36223 4.94124 3.12504C4.90743 2.9083 4.8622 2.6935 4.80574 2.48154C4.77639 2.37102 4.74152 2.26205 4.70124 2.15504C4.66874 2.07354 4.63474 1.99904 4.60124 1.92804C4.26568 2.27711 3.91273 2.60903 3.54374 2.92254Z" fill="url(#paint6_linear_36593_44149)"/>
<path d="M5.40723 6.80002C5.39073 6.81852 5.37223 6.83452 5.35373 6.85402C5.37057 6.83506 5.38843 6.81704 5.40723 6.80002Z" fill="#BE202E"/>
<path d="M5.40723 6.80002C5.39073 6.81852 5.37223 6.83452 5.35373 6.85402C5.37057 6.83506 5.38843 6.81704 5.40723 6.80002Z" fill="#BE202E"/>
<path d="M5.40723 6.80002C5.39073 6.81852 5.37223 6.83452 5.35373 6.85402C5.37057 6.83506 5.38843 6.81704 5.40723 6.80002Z" fill="url(#paint7_linear_36593_44149)"/>
<path d="M5.19373 6.17953C5.19973 6.17503 5.20424 6.16903 5.21174 6.16303C5.20573 6.16753 5.20123 6.17353 5.19373 6.17953Z" fill="#BE202E"/>
<path d="M5.19373 6.17953C5.19973 6.17503 5.20424 6.16903 5.21174 6.16303C5.20573 6.16753 5.20123 6.17353 5.19373 6.17953Z" fill="#BE202E"/>
<path d="M5.19373 6.17953C5.19973 6.17503 5.20424 6.16903 5.21174 6.16303C5.20573 6.16753 5.20123 6.17353 5.19373 6.17953Z" fill="url(#paint8_linear_36593_44149)"/>
<path d="M12.3072 1.44554C11.8618 1.69052 11.4533 1.99722 11.0937 2.35654L11.3937 3.20154C11.72 2.8496 12.0709 2.52127 12.4437 2.21904C12.4692 2.19804 12.4847 2.18604 12.4847 2.18604C12.4717 2.19804 12.4567 2.20704 12.4437 2.21904C12.0845 2.52774 11.7501 2.86428 11.4437 3.22554C11.9907 3.26622 12.5395 3.27823 13.0877 3.26154C13.1802 3.05477 13.231 2.83177 13.2371 2.60533C13.2432 2.37889 13.2045 2.15348 13.1232 1.94204C13.1232 1.94204 12.8172 1.23504 12.3072 1.44554Z" fill="url(#paint9_linear_36593_44149)"/>
<path d="M9.94372 7.82302C9.88772 7.82602 9.83222 7.82602 9.77672 7.82602C9.80422 7.82602 9.83472 7.82602 9.86272 7.82602C9.88976 7.82662 9.9168 7.82562 9.94372 7.82302Z" fill="#BE202E"/>
<path d="M9.94372 7.82302C9.88772 7.82602 9.83222 7.82602 9.77672 7.82602C9.80422 7.82602 9.83472 7.82602 9.86272 7.82602C9.88976 7.82662 9.9168 7.82562 9.94372 7.82302Z" fill="#BE202E"/>
<path d="M10.1857 7.15702C10.1937 7.15702 10.2022 7.15702 10.2107 7.15702C10.2467 7.15702 10.2827 7.15702 10.3167 7.15302C10.2747 7.15302 10.2307 7.15302 10.1862 7.15602L10.1857 7.15702Z" fill="#BE202E"/>
<path d="M10.1857 7.15702C10.1937 7.15702 10.2022 7.15702 10.2107 7.15702C10.2467 7.15702 10.2827 7.15702 10.3167 7.15302C10.2747 7.15302 10.2307 7.15302 10.1862 7.15602L10.1857 7.15702Z" fill="#BE202E"/>
<path d="M9.86922 5.04553C10.0312 4.8282 10.1926 4.6162 10.3532 4.40953C10.5202 4.19553 10.6892 3.99053 10.8597 3.79103C10.8697 3.77853 10.8802 3.76653 10.8897 3.75653C11.0567 3.56203 11.2227 3.37604 11.3897 3.19804L11.0897 2.35554C11.0542 2.38904 11.0162 2.42254 10.9777 2.45804C10.8362 2.58954 10.6882 2.73154 10.5357 2.88354C10.3637 3.05504 10.1857 3.23704 10.0037 3.42903C9.83622 3.60703 9.66472 3.79503 9.49222 3.98853C9.34572 4.15553 9.19872 4.32503 9.05122 4.50053L9.03422 4.52003L9.41772 5.66553C9.57022 5.45903 9.71972 5.25003 9.86922 5.04553Z" fill="url(#paint10_linear_36593_44149)"/>
<path d="M6.52523 10.7C6.42523 10.885 6.32523 11.075 6.22273 11.271C6.22273 11.2735 6.21923 11.276 6.21873 11.2785C6.20373 11.307 6.18873 11.3325 6.17623 11.361C6.10723 11.492 6.04823 11.611 5.90923 11.879C6.07261 12.0215 6.18977 12.2095 6.24573 12.419C6.26764 12.1882 6.19796 11.958 6.05173 11.778C6.83073 11.928 7.53823 11.828 7.96973 11.3055C8.00723 11.2585 8.04473 11.2085 8.08023 11.1555C7.97884 11.2488 7.85407 11.3128 7.71919 11.3408C7.58431 11.3688 7.44436 11.3597 7.31423 11.3145C7.77882 11.2155 8.19698 10.964 8.50222 10.6C8.57272 10.516 8.64422 10.424 8.71772 10.321C8.48518 10.512 8.20679 10.6389 7.91011 10.6893C7.61343 10.7396 7.30876 10.7116 7.02623 10.608L6.58223 10.5925C6.56323 10.6305 6.54373 10.664 6.52523 10.7Z" fill="url(#paint11_linear_36593_44149)"/>
<path d="M6.87273 9.75002C7.00373 9.51952 7.13723 9.28702 7.27273 9.05002C7.40273 8.82502 7.53523 8.60002 7.67273 8.37402C7.81023 8.14802 7.94723 7.92102 8.08573 7.69452C8.22423 7.46802 8.37223 7.23502 8.51922 7.00702C8.66622 6.77902 8.81272 6.55703 8.95872 6.33403C9.01222 6.25303 9.06522 6.17503 9.12122 6.09453C9.21322 5.95853 9.30822 5.82253 9.40272 5.68703C9.40672 5.67953 9.41322 5.67203 9.41722 5.66403L9.03872 4.52203C9.02846 4.53594 9.01727 4.54913 9.00522 4.56153C8.85022 4.74953 8.69222 4.93953 8.53822 5.13603C8.38422 5.33253 8.22723 5.53603 8.07473 5.74453C7.94623 5.91953 7.82073 6.09453 7.69473 6.27353C7.67023 6.30853 7.64473 6.34653 7.62073 6.38203C7.47073 6.60652 7.32523 6.82652 7.19723 7.03802C7.05123 7.27702 6.92023 7.50752 6.80273 7.72552C6.72623 7.86952 6.65273 8.00852 6.58623 8.14302C6.53073 8.25702 6.47773 8.37352 6.42473 8.48802C6.30173 8.75802 6.19273 9.03052 6.09423 9.30452L6.47973 10.4545C6.57973 10.272 6.68273 10.0905 6.78523 9.90452C6.81273 9.85501 6.84373 9.80402 6.87273 9.75002Z" fill="url(#paint12_linear_36593_44149)"/>
<path d="M6.07873 9.34302C5.96078 9.67163 5.86343 10.0073 5.78723 10.348C5.78723 10.359 5.78073 10.372 5.77923 10.383C5.63977 10.1418 5.45546 9.92949 5.23623 9.75751C5.49589 10.2102 5.63451 10.7222 5.63873 11.244C5.40065 11.2299 5.17016 11.155 4.96924 11.0265C5.10715 11.2164 5.29084 11.3682 5.50323 11.468C5.19119 11.4818 4.88896 11.5812 4.62974 11.7555C4.95008 11.6482 5.29471 11.6362 5.62173 11.721C5.09373 12.716 4.55374 13.8225 4.00124 15C4.05472 14.9927 4.10556 14.9723 4.14919 14.9405C4.19282 14.9088 4.22789 14.8667 4.25124 14.818C4.35124 14.605 5.00624 13.205 5.97773 11.382C6.00473 11.332 6.03423 11.2795 6.06173 11.225C6.06973 11.2095 6.07673 11.1965 6.08473 11.1815C6.1874 10.9915 6.29357 10.7965 6.40323 10.5965C6.42923 10.5505 6.45323 10.5065 6.47873 10.4605V10.458L6.09323 9.30802C6.0873 9.3192 6.08245 9.33092 6.07873 9.34302Z" fill="url(#paint13_linear_36593_44149)"/>
<path d="M9.49072 5.77203C9.46972 5.80203 9.45172 5.83003 9.43072 5.86003C9.37022 5.95103 9.30722 6.04153 9.24622 6.13503C9.18522 6.22853 9.11072 6.33953 9.03972 6.44553C9.00422 6.49853 8.96872 6.55153 8.93272 6.60703C8.82522 6.77152 8.71722 6.94152 8.60572 7.11602C8.46873 7.33152 8.33072 7.55502 8.18823 7.78902C8.05323 8.01052 7.91373 8.24202 7.77373 8.47952C7.64073 8.70652 7.50423 8.93902 7.36573 9.17952C7.24273 9.39452 7.11873 9.61702 6.99073 9.84502C6.98373 9.85501 6.97923 9.86801 6.97223 9.87852C6.84773 10.104 6.71923 10.3375 6.58973 10.5785C6.58593 10.583 6.58319 10.5883 6.58173 10.594L7.02573 10.6095C7.01823 10.6055 7.00973 10.6045 6.99923 10.6C7.6585 10.5641 8.28963 10.321 8.80272 9.90551C9.05739 9.69776 9.28694 9.46099 9.48672 9.20002C9.66088 8.9742 9.82053 8.73755 9.96472 8.49152C10.1007 8.26202 10.2377 8.01052 10.3722 7.73652C10.233 7.78271 10.0882 7.80996 9.94172 7.81752L9.85772 7.82202C9.82972 7.82202 9.80222 7.82202 9.77172 7.82202C10.2545 7.7028 10.6717 7.40002 10.9347 6.97802C10.7389 7.07267 10.5274 7.13095 10.3107 7.15002C10.2767 7.15352 10.2407 7.15352 10.2047 7.15402C10.1967 7.15402 10.1882 7.15402 10.1772 7.15402C10.3417 7.11435 10.5005 7.05386 10.6497 6.97402C10.679 6.95901 10.7074 6.94231 10.7347 6.92402C10.7777 6.89702 10.8177 6.86702 10.8582 6.83702C10.8837 6.81602 10.9082 6.79702 10.9337 6.77602C10.9926 6.72486 11.0472 6.66883 11.0967 6.60852C11.1137 6.58902 11.1297 6.57202 11.1437 6.55152C11.1647 6.52152 11.1852 6.49403 11.2032 6.46603C11.2907 6.34053 11.3632 6.22603 11.4227 6.12403C11.4522 6.07403 11.4787 6.02703 11.5017 5.98303C11.5097 5.96503 11.5202 5.94953 11.5287 5.93303C11.5527 5.88303 11.5757 5.84003 11.5922 5.80103C11.6125 5.75569 11.6304 5.70929 11.6457 5.66203C11.6261 5.67424 11.6051 5.68414 11.5832 5.69153C11.3796 5.76281 11.1663 5.8026 10.9507 5.80953C10.9494 5.8089 10.9479 5.80858 10.9465 5.80858C10.945 5.80858 10.9435 5.8089 10.9422 5.80953C10.9209 5.80841 10.8995 5.80841 10.8782 5.80953C10.8812 5.80953 10.8867 5.80953 10.8897 5.80553L9.49472 5.75553C9.49722 5.76453 9.49372 5.76953 9.49072 5.77203Z" fill="url(#paint14_linear_36593_44149)"/>
<path d="M11.4437 3.22604C11.2937 3.39554 11.1297 3.59003 10.9507 3.80803C10.9406 3.81894 10.9314 3.83064 10.9232 3.84303C10.7677 4.03353 10.6042 4.24303 10.4287 4.47453C10.2787 4.67453 10.1187 4.88653 9.95172 5.11953C9.80572 5.31953 9.65822 5.53403 9.50172 5.76003L10.8967 5.81003C11.2171 5.73478 11.5085 5.56761 11.7352 5.32903C11.7907 5.27053 11.8472 5.20703 11.9042 5.14053C12.0827 4.93561 12.2507 4.72184 12.4077 4.50003C12.5519 4.29871 12.6855 4.08992 12.8077 3.87453C12.872 3.76238 12.9305 3.64707 12.9832 3.52903C13.0217 3.43754 13.0537 3.35104 13.0832 3.26654C12.5364 3.28057 11.9892 3.26705 11.4437 3.22604Z" fill="url(#paint15_linear_36593_44149)"/>
<path d="M9.86272 7.82752C9.83472 7.82752 9.80722 7.82752 9.77672 7.82752C9.80537 7.82595 9.83408 7.82595 9.86272 7.82752Z" fill="#BE202E"/>
<path d="M9.86272 7.82752C9.83472 7.82752 9.80722 7.82752 9.77672 7.82752C9.80537 7.82595 9.83408 7.82595 9.86272 7.82752Z" fill="#BE202E"/>
<path d="M9.86272 7.82752C9.83472 7.82752 9.80722 7.82752 9.77672 7.82752C9.80537 7.82595 9.83408 7.82595 9.86272 7.82752Z" fill="url(#paint16_linear_36593_44149)"/>
<path d="M10.1827 7.15652C10.1907 7.15652 10.1992 7.15652 10.2102 7.15652C10.2022 7.15652 10.1937 7.15652 10.1827 7.15652Z" fill="#BE202E"/>
<path d="M10.1827 7.15652C10.1907 7.15652 10.1992 7.15652 10.2102 7.15652C10.2022 7.15652 10.1937 7.15652 10.1827 7.15652Z" fill="#BE202E"/>
<path d="M10.1827 7.15652C10.1907 7.15652 10.1992 7.15652 10.2102 7.15652C10.2022 7.15652 10.1937 7.15652 10.1827 7.15652Z" fill="url(#paint17_linear_36593_44149)"/>
<defs>
<linearGradient id="paint0_linear_36593_44149" x1="2.3391" y1="2.04861" x2="15.2686" y2="-11.0397" gradientUnits="userSpaceOnUse">
<stop stop-color="#F69923"/>
<stop offset="0.312" stop-color="#F79A23"/>
<stop offset="0.838" stop-color="#E97826"/>
</linearGradient>
<linearGradient id="paint1_linear_36593_44149" x1="26.7555" y1="54.239" x2="21.6159" y2="-4.96051" gradientUnits="userSpaceOnUse">
<stop offset="0.323" stop-color="#9E2064"/>
<stop offset="0.63" stop-color="#C92037"/>
<stop offset="0.751" stop-color="#CD2335"/>
<stop offset="1" stop-color="#E97826"/>
</linearGradient>
<linearGradient id="paint2_linear_36593_44149" x1="10.9075" y1="18.5823" x2="6.23583" y2="-19.7216" gradientUnits="userSpaceOnUse">
<stop stop-color="#282662"/>
<stop offset="0.095" stop-color="#662E8D"/>
<stop offset="0.788" stop-color="#9F2064"/>
<stop offset="0.949" stop-color="#CD2032"/>
</linearGradient>
<linearGradient id="paint3_linear_36593_44149" x1="12.8903" y1="23.4535" x2="9.31264" y2="-11.1729" gradientUnits="userSpaceOnUse">
<stop offset="0.323" stop-color="#9E2064"/>
<stop offset="0.63" stop-color="#C92037"/>
<stop offset="0.751" stop-color="#CD2335"/>
<stop offset="1" stop-color="#E97826"/>
</linearGradient>
<linearGradient id="paint4_linear_36593_44149" x1="7.45942" y1="8.8328" x2="4.746" y2="-10.8464" gradientUnits="userSpaceOnUse">
<stop stop-color="#282662"/>
<stop offset="0.095" stop-color="#662E8D"/>
<stop offset="0.788" stop-color="#9F2064"/>
<stop offset="0.949" stop-color="#CD2032"/>
</linearGradient>
<linearGradient id="paint5_linear_36593_44149" x1="13.7896" y1="21.568" x2="11.079" y2="-7.9752" gradientUnits="userSpaceOnUse">
<stop offset="0.323" stop-color="#9E2064"/>
<stop offset="0.63" stop-color="#C92037"/>
<stop offset="0.751" stop-color="#CD2335"/>
<stop offset="1" stop-color="#E97826"/>
</linearGradient>
<linearGradient id="paint6_linear_36593_44149" x1="21.8926" y1="46.72" x2="16.8463" y2="-1.84332" gradientUnits="userSpaceOnUse">
<stop offset="0.323" stop-color="#9E2064"/>
<stop offset="0.63" stop-color="#C92037"/>
<stop offset="0.751" stop-color="#CD2335"/>
<stop offset="1" stop-color="#E97826"/>
</linearGradient>
<linearGradient id="paint7_linear_36593_44149" x1="239.771" y1="1720.2" x2="-607.071" y2="-1505.92" gradientUnits="userSpaceOnUse">
<stop offset="0.323" stop-color="#9E2064"/>
<stop offset="0.63" stop-color="#C92037"/>
<stop offset="0.751" stop-color="#CD2335"/>
<stop offset="1" stop-color="#E97826"/>
</linearGradient>
<linearGradient id="paint8_linear_36593_44149" x1="773.229" y1="6175.79" x2="-2237.24" y2="-4239.77" gradientUnits="userSpaceOnUse">
<stop offset="0.323" stop-color="#9E2064"/>
<stop offset="0.63" stop-color="#C92037"/>
<stop offset="0.751" stop-color="#CD2335"/>
<stop offset="1" stop-color="#E97826"/>
</linearGradient>
<linearGradient id="paint9_linear_36593_44149" x1="-0.568701" y1="5.40307" x2="15.0569" y2="4.14067" gradientUnits="userSpaceOnUse">
<stop stop-color="#F69923"/>
<stop offset="0.312" stop-color="#F79A23"/>
<stop offset="0.838" stop-color="#E97826"/>
</linearGradient>
<linearGradient id="paint10_linear_36593_44149" x1="-29.7961" y1="53.0374" x2="4.02451" y2="-0.792061" gradientUnits="userSpaceOnUse">
<stop offset="0.323" stop-color="#9E2064"/>
<stop offset="0.63" stop-color="#C92037"/>
<stop offset="0.751" stop-color="#CD2335"/>
<stop offset="1" stop-color="#E97826"/>
</linearGradient>
<linearGradient id="paint11_linear_36593_44149" x1="-4.57824" y1="25.4665" x2="30.2274" y2="-3.9827" gradientUnits="userSpaceOnUse">
<stop stop-color="#282662"/>
<stop offset="0.095" stop-color="#662E8D"/>
<stop offset="0.788" stop-color="#9F2064"/>
<stop offset="0.949" stop-color="#CD2032"/>
</linearGradient>
<linearGradient id="paint12_linear_36593_44149" x1="-9.9618" y1="23.1055" x2="6.68334" y2="-10.5525" gradientUnits="userSpaceOnUse">
<stop offset="0.323" stop-color="#9E2064"/>
<stop offset="0.63" stop-color="#C92037"/>
<stop offset="0.751" stop-color="#CD2335"/>
<stop offset="1" stop-color="#E97826"/>
</linearGradient>
<linearGradient id="paint13_linear_36593_44149" x1="-2.21877" y1="10.3264" x2="5.46387" y2="-9.66553" gradientUnits="userSpaceOnUse">
<stop stop-color="#282662"/>
<stop offset="0.095" stop-color="#662E8D"/>
<stop offset="0.788" stop-color="#9F2064"/>
<stop offset="0.949" stop-color="#CD2032"/>
</linearGradient>
<linearGradient id="paint14_linear_36593_44149" x1="-3.95087" y1="26.6713" x2="21.0356" y2="-0.978377" gradientUnits="userSpaceOnUse">
<stop offset="0.323" stop-color="#9E2064"/>
<stop offset="0.63" stop-color="#C92037"/>
<stop offset="0.751" stop-color="#CD2335"/>
<stop offset="1" stop-color="#E97826"/>
</linearGradient>
<linearGradient id="paint15_linear_36593_44149" x1="-16.9338" y1="67.2813" x2="30.189" y2="28.7732" gradientUnits="userSpaceOnUse">
<stop offset="0.323" stop-color="#9E2064"/>
<stop offset="0.63" stop-color="#C92037"/>
<stop offset="0.751" stop-color="#CD2335"/>
<stop offset="1" stop-color="#E97826"/>
</linearGradient>
<linearGradient id="paint16_linear_36593_44149" x1="-735.011" y1="85224.2" x2="2537.15" y2="85173.5" gradientUnits="userSpaceOnUse">
<stop offset="0.323" stop-color="#9E2064"/>
<stop offset="0.63" stop-color="#C92037"/>
<stop offset="0.751" stop-color="#CD2335"/>
<stop offset="1" stop-color="#E97826"/>
</linearGradient>
<linearGradient id="paint17_linear_36593_44149" x1="10.1827" y1="7.16652" x2="10.2102" y2="7.16652" gradientUnits="userSpaceOnUse">
<stop offset="0.323" stop-color="#9E2064"/>
<stop offset="0.63" stop-color="#C92037"/>
<stop offset="0.751" stop-color="#CD2335"/>
<stop offset="1" stop-color="#E97826"/>
</linearGradient>
</defs>
</svg>
