<svg width="20" height="20" viewBox="0 0 20 20" fill="none" xmlns="http://www.w3.org/2000/svg">
<path d="M2.58331 15.8337V6.66675C2.58331 6.25253 2.9191 5.91675 3.33331 5.91675C3.74753 5.91675 4.08331 6.25253 4.08331 6.66675V15.8337L4.0882 15.9275C4.1353 16.3896 4.5258 16.7498 5.00031 16.7498H15.0003C15.5063 16.7496 15.9161 16.3398 15.9163 15.8337V6.66675C15.9163 6.25264 16.2523 5.91692 16.6663 5.91675C17.0805 5.91675 17.4163 6.25253 17.4163 6.66675V15.8337C17.4161 17.1682 16.3348 18.2496 15.0003 18.2498H5.00031C3.74915 18.2498 2.71991 17.2993 2.59601 16.0808L2.58331 15.8337Z" fill="#37364D"/>
<path d="M17.5837 3.33301C17.5835 3.28713 17.5456 3.25 17.4997 3.25H2.49969C2.45393 3.25017 2.41686 3.28725 2.41669 3.33301V5.83301C2.41669 5.87892 2.45382 5.91682 2.49969 5.91699H17.4997C17.5457 5.91699 17.5837 5.87904 17.5837 5.83301V3.33301ZM19.0837 5.83301C19.0837 6.70745 18.3742 7.41699 17.4997 7.41699H2.49969C1.6254 7.41682 0.916687 6.70735 0.916687 5.83301V3.33301C0.916863 2.45882 1.62551 1.75018 2.49969 1.75H17.4997C18.3741 1.75 19.0835 2.45872 19.0837 3.33301V5.83301Z" fill="#37364D"/>
<path d="M11.6663 8.41675C12.0805 8.41675 12.4163 8.75253 12.4163 9.16675C12.4163 9.58096 12.0805 9.91675 11.6663 9.91675H8.33331C7.9191 9.91675 7.58331 9.58096 7.58331 9.16675C7.58331 8.75253 7.9191 8.41675 8.33331 8.41675H11.6663Z" fill="#37364D"/>
</svg>
